#Comment line ignore any data following # character 
#Hierarchical Translation and Rotation (.htr) file 
[Header]	
#Header keywords are followed by a single value 
FileType HTR		#Single word string
DataType HTRS		#Translation followed by rotation and scale data
FileVersion 1		#integer
NumSegments 84		#integer
NumFrames 2		#integer
DataFrameRate 30		#integer, data frame rate in this file
EulerRotationOrder ZYX
CalibrationUnits mm
RotationUnits Degrees
GlobalAxisofGravity Y
BoneLengthAxis Y
ScaleFactor 1.00
[SegmentNames&Hierarchy]
#CHILD	PARENT
MASTER GLOBAL
root MASTER
chest root
L_mid_tent01 root
R_mid_tent01 root
spine01 root
Bip01_Neck chest
L_humerus chest
R_humerus chest
weapon_bone chest
Bip01_Head Bip01_Neck
eye_left_bone Bip01_Head
eye_right_bone Bip01_Head
L_forearm L_humerus
L_front_hand L_forearm
L_weapon_bone L_forearm
L_front_hand01_01 L_front_hand
L_front_hand02_01 L_front_hand
L_front_hand03_01 L_front_hand
L_front_hand01_02 L_front_hand01_01
L_front_hand02_02 L_front_hand02_01
L_front_hand03_02 L_front_hand03_01
R_forearm R_humerus
R_front_hand R_forearm
R_weapon_bone R_forearm
R_front_hand01_01 R_front_hand
R_front_hand02_01 R_front_hand
R_front_hand03_01 R_front_hand
R_front_hand01_02 R_front_hand01_01
R_front_hand02_02 R_front_hand02_01
R_front_hand03_02 R_front_hand03_01
null_rope01_connect L_mid_tent01
Rope1_Seg01 null_rope01_connect
Rope1_Seg02 Rope1_Seg01
Rope1_Seg03 Rope1_Seg02
Rope1_Seg04 Rope1_Seg03
Rope1_Seg05 Rope1_Seg04
Rope1_Seg06 Rope1_Seg05
Rope1_Seg07 Rope1_Seg06
Rope1_Seg09 Rope1_Seg07
L_mid_hand01 Rope1_Seg09
L_mid_hand02 Rope1_Seg09
L_mid_hand03 Rope1_Seg09
null_rope02_connect R_mid_tent01
Rope2_Seg01 null_rope02_connect
Rope2_Seg02 Rope2_Seg01
Rope2_Seg03 Rope2_Seg02
Rope2_Seg04 Rope2_Seg03
Rope2_Seg05 Rope2_Seg04
Rope2_Seg06 Rope2_Seg05
Rope2_Seg07 Rope2_Seg06
Rope2_Seg09 Rope2_Seg07
R_mid_hand01 Rope2_Seg09
R_mid_hand02 Rope2_Seg09
R_mid_hand03 Rope2_Seg09
spine02 spine01
spine03 spine02
pelvis spine03
null_rope03_connect pelvis
null_rope04_connect pelvis
Rope3_Seg01 null_rope03_connect
Rope3_Seg02 Rope3_Seg01
Rope3_Seg03 Rope3_Seg02
Rope3_Seg04 Rope3_Seg03
Rope3_Seg05 Rope3_Seg04
Rope3_Seg06 Rope3_Seg05
Rope3_Seg07 Rope3_Seg06
Rope3_Seg08 Rope3_Seg07
Rope3_Seg09 Rope3_Seg08
R_rear_hand01 Rope3_Seg09
R_rear_hand02 Rope3_Seg09
R_rear_hand03 Rope3_Seg09
Rope4_Seg01 null_rope04_connect
Rope4_Seg02 Rope4_Seg01
Rope4_Seg03 Rope4_Seg02
Rope4_Seg04 Rope4_Seg03
Rope4_Seg05 Rope4_Seg04
Rope4_Seg06 Rope4_Seg05
Rope4_Seg07 Rope4_Seg06
Rope4_Seg08 Rope4_Seg07
Rope4_Seg09 Rope4_Seg08
L_rear_hand01 Rope4_Seg09
L_rear_hand02 Rope4_Seg09
L_rear_hand03 Rope4_Seg09
[BasePosition]
#SegmentName Tx, Ty, Tz, Rx, Ry, Rz, BoneLength
MASTER 0.000000 0.000000 0.000000 -90.000000 0.000000 0.000000 10.000000 
root 0.000000 0.000000 0.000000 0.000000 0.000000 0.000000 10.000000 
chest 0.000000 0.000000 0.000000 0.000000 0.000000 0.000000 10.000000 
L_mid_tent01 0.000000 0.000000 0.000000 0.000000 0.000000 0.000000 10.000000 
R_mid_tent01 0.000000 0.000000 0.000000 0.000000 0.000000 0.000000 10.000000 
spine01 0.000000 0.000000 0.000000 0.000000 0.000000 0.000000 10.000000 
Bip01_Neck 0.000000 0.000000 0.000000 0.000000 0.000000 0.000000 10.000000 
L_humerus 0.000000 0.000000 0.000000 0.000000 0.000000 0.000000 10.000000 
R_humerus 0.000000 0.000000 0.000000 0.000000 0.000000 0.000000 10.000000 
weapon_bone 0.000000 0.000000 0.000000 0.000000 0.000000 0.000000 10.000000 
Bip01_Head 0.000000 0.000000 0.000000 0.000000 0.000000 0.000000 10.000000 
eye_left_bone 0.000000 0.000000 0.000000 0.000000 0.000000 0.000000 10.000000 
eye_right_bone 0.000000 0.000000 0.000000 0.000000 0.000000 0.000000 10.000000 
L_forearm 0.000000 0.000000 0.000000 0.000000 0.000000 0.000000 10.000000 
L_front_hand 0.000000 0.000000 0.000000 0.000000 0.000000 0.000000 10.000000 
L_weapon_bone 0.000000 0.000000 0.000000 0.000000 0.000000 0.000000 10.000000 
L_front_hand01_01 0.000000 0.000000 0.000000 0.000000 0.000000 0.000000 10.000000 
L_front_hand02_01 0.000000 0.000000 0.000000 0.000000 0.000000 0.000000 10.000000 
L_front_hand03_01 0.000000 0.000000 0.000000 0.000000 0.000000 0.000000 10.000000 
L_front_hand01_02 0.000000 0.000000 0.000000 0.000000 0.000000 0.000000 10.000000 
L_front_hand02_02 0.000000 0.000000 0.000000 0.000000 0.000000 0.000000 10.000000 
L_front_hand03_02 0.000000 0.000000 0.000000 0.000000 0.000000 0.000000 10.000000 
R_forearm 0.000000 0.000000 0.000000 0.000000 0.000000 0.000000 10.000000 
R_front_hand 0.000000 0.000000 0.000000 0.000000 0.000000 0.000000 10.000000 
R_weapon_bone 0.000000 0.000000 0.000000 0.000000 0.000000 0.000000 10.000000 
R_front_hand01_01 0.000000 0.000000 0.000000 0.000000 0.000000 0.000000 10.000000 
R_front_hand02_01 0.000000 0.000000 0.000000 0.000000 0.000000 0.000000 10.000000 
R_front_hand03_01 0.000000 0.000000 0.000000 0.000000 0.000000 0.000000 10.000000 
R_front_hand01_02 0.000000 0.000000 0.000000 0.000000 0.000000 0.000000 10.000000 
R_front_hand02_02 0.000000 0.000000 0.000000 0.000000 0.000000 0.000000 10.000000 
R_front_hand03_02 0.000000 0.000000 0.000000 0.000000 0.000000 0.000000 10.000000 
null_rope01_connect 0.000000 0.000000 0.000000 0.000000 0.000000 0.000000 10.000000 
Rope1_Seg01 0.000000 0.000000 0.000000 0.000000 0.000000 0.000000 10.000000 
Rope1_Seg02 0.000000 0.000000 0.000000 0.000000 0.000000 0.000000 10.000000 
Rope1_Seg03 0.000000 0.000000 0.000000 0.000000 0.000000 0.000000 10.000000 
Rope1_Seg04 0.000000 0.000000 0.000000 0.000000 0.000000 0.000000 10.000000 
Rope1_Seg05 0.000000 0.000000 0.000000 0.000000 0.000000 0.000000 10.000000 
Rope1_Seg06 0.000000 0.000000 0.000000 0.000000 0.000000 0.000000 10.000000 
Rope1_Seg07 0.000000 0.000000 0.000000 0.000000 0.000000 0.000000 10.000000 
Rope1_Seg09 0.000000 0.000000 0.000000 0.000000 0.000000 0.000000 10.000000 
L_mid_hand01 0.000000 0.000000 0.000000 0.000000 0.000000 0.000000 10.000000 
L_mid_hand02 0.000000 0.000000 0.000000 0.000000 0.000000 0.000000 10.000000 
L_mid_hand03 0.000000 0.000000 0.000000 0.000000 0.000000 0.000000 10.000000 
null_rope02_connect 0.000000 0.000000 0.000000 0.000000 0.000000 0.000000 10.000000 
Rope2_Seg01 0.000000 0.000000 0.000000 0.000000 0.000000 0.000000 10.000000 
Rope2_Seg02 0.000000 0.000000 0.000000 0.000000 0.000000 0.000000 10.000000 
Rope2_Seg03 0.000000 0.000000 0.000000 0.000000 0.000000 0.000000 10.000000 
Rope2_Seg04 0.000000 0.000000 0.000000 0.000000 0.000000 0.000000 10.000000 
Rope2_Seg05 0.000000 0.000000 0.000000 0.000000 0.000000 0.000000 10.000000 
Rope2_Seg06 0.000000 0.000000 0.000000 0.000000 0.000000 0.000000 10.000000 
Rope2_Seg07 0.000000 0.000000 0.000000 0.000000 0.000000 0.000000 10.000000 
Rope2_Seg09 0.000000 0.000000 0.000000 0.000000 0.000000 0.000000 10.000000 
R_mid_hand01 0.000000 0.000000 0.000000 0.000000 0.000000 0.000000 10.000000 
R_mid_hand02 0.000000 0.000000 0.000000 0.000000 0.000000 0.000000 10.000000 
R_mid_hand03 0.000000 0.000000 0.000000 0.000000 0.000000 0.000000 10.000000 
spine02 0.000000 0.000000 0.000000 0.000000 0.000000 0.000000 10.000000 
spine03 0.000000 0.000000 0.000000 0.000000 0.000000 0.000000 10.000000 
pelvis 0.000000 0.000000 0.000000 0.000000 0.000000 0.000000 10.000000 
null_rope03_connect 0.000000 0.000000 0.000000 0.000000 0.000000 0.000000 10.000000 
null_rope04_connect 0.000000 0.000000 0.000000 0.000000 0.000000 0.000000 10.000000 
Rope3_Seg01 0.000000 0.000000 0.000000 0.000000 0.000000 0.000000 10.000000 
Rope3_Seg02 0.000000 0.000000 0.000000 0.000000 0.000000 0.000000 10.000000 
Rope3_Seg03 0.000000 0.000000 0.000000 0.000000 0.000000 0.000000 10.000000 
Rope3_Seg04 0.000000 0.000000 0.000000 0.000000 0.000000 0.000000 10.000000 
Rope3_Seg05 0.000000 0.000000 0.000000 0.000000 0.000000 0.000000 10.000000 
Rope3_Seg06 0.000000 0.000000 0.000000 0.000000 0.000000 0.000000 10.000000 
Rope3_Seg07 0.000000 0.000000 0.000000 0.000000 0.000000 0.000000 10.000000 
Rope3_Seg08 0.000000 0.000000 0.000000 0.000000 0.000000 0.000000 10.000000 
Rope3_Seg09 0.000000 0.000000 0.000000 0.000000 0.000000 0.000000 10.000000 
R_rear_hand01 0.000000 0.000000 0.000000 0.000000 0.000000 0.000000 10.000000 
R_rear_hand02 0.000000 0.000000 0.000000 0.000000 0.000000 0.000000 10.000000 
R_rear_hand03 0.000000 0.000000 0.000000 0.000000 0.000000 0.000000 10.000000 
Rope4_Seg01 0.000000 0.000000 0.000000 0.000000 0.000000 0.000000 10.000000 
Rope4_Seg02 0.000000 0.000000 0.000000 0.000000 0.000000 0.000000 10.000000 
Rope4_Seg03 0.000000 0.000000 0.000000 0.000000 0.000000 0.000000 10.000000 
Rope4_Seg04 0.000000 0.000000 0.000000 0.000000 0.000000 0.000000 10.000000 
Rope4_Seg05 0.000000 0.000000 0.000000 0.000000 0.000000 0.000000 10.000000 
Rope4_Seg06 0.000000 0.000000 0.000000 0.000000 0.000000 0.000000 10.000000 
Rope4_Seg07 0.000000 0.000000 0.000000 0.000000 0.000000 0.000000 10.000000 
Rope4_Seg08 0.000000 0.000000 0.000000 0.000000 0.000000 0.000000 10.000000 
Rope4_Seg09 0.000000 0.000000 0.000000 0.000000 0.000000 0.000000 10.000000 
L_rear_hand01 0.000000 0.000000 0.000000 0.000000 0.000000 0.000000 10.000000 
L_rear_hand02 0.000000 0.000000 0.000000 0.000000 0.000000 0.000000 10.000000 
L_rear_hand03 0.000000 0.000000 0.000000 0.000000 0.000000 0.000000 10.000000 
#Beginning of Data. Separated by tabs
#Fr	Tx	Ty	Tz	Rx	Ry	Rz	SF
[MASTER]
12 0.000000 0.000000 0.000000 0.001660 0.001660 0.001660 0.000000
13 0.000000 0.000000 0.000000 0.001660 0.001660 0.001660 0.000000
[root]
12 4.425927 -62.822132 902.578247 -90.047836 -7.572695 -89.831276 904.772705
13 2.043921 -62.822132 897.199707 -90.166573 -7.577084 -89.828758 899.398743
[chest]
12 -84.512650 -34.090519 0.000000 -0.307809 -0.743092 156.385437 91.129311
13 -84.512650 -34.090519 0.000000 -0.307809 -0.743092 156.385437 91.129311
[L_mid_tent01]
12 23.228750 24.509907 -223.761200 -15.386934 21.889561 -18.353844 226.294907
13 23.228750 24.509907 -223.761200 -14.003469 23.366692 -15.062277 226.294907
[R_mid_tent01]
12 23.228794 24.509907 226.238495 -159.698151 -5.594944 -22.284742 228.744751
13 23.228794 24.509907 226.238495 -159.906189 -4.246606 -21.363230 228.744751
[spine01]
12 -0.361383 -0.195265 0.000000 0.001815 0.001488 11.320962 0.410763
13 -0.361383 -0.195265 0.000000 0.001815 0.001488 11.320960 0.410763
[Bip01_Neck]
12 165.484543 71.581718 0.000119 175.896118 1.177290 24.871183 180.302734
13 165.484543 71.581718 0.000119 175.896118 1.177290 24.871183 180.302734
[L_humerus]
12 -13.983130 -135.272980 -120.471481 -104.702057 -2.574140 -132.238052 181.680161
13 -13.983130 -135.272980 -120.471481 -104.702057 -2.574140 -132.238052 181.680161
[R_humerus]
12 -13.983309 -135.273102 125.287651 84.935959 -3.633308 -127.041824 184.909012
13 -13.983309 -135.273102 125.287651 84.935951 -3.633307 -127.041824 184.909012
[weapon_bone]
12 235.964890 -300.705902 0.000000 0.000000 -89.951546 -128.212341 382.234833
13 235.964890 -300.705902 0.000000 0.000000 -89.951546 -128.212341 382.234833
[Bip01_Head]
12 201.313812 211.516800 15.929740 0.070069 1.706286 -65.009583 292.438660
13 201.313812 211.516800 15.929740 0.003736 1.165679 -65.035599 292.438660
[eye_left_bone]
12 -24.626970 125.451866 -64.772606 0.000000 -90.000000 -99.840431 143.318359
13 -24.626970 125.451866 -64.772606 0.000000 -90.000000 -99.840431 143.318359
[eye_right_bone]
12 -24.626970 125.451866 64.327362 0.000000 -89.965736 80.156380 143.117676
13 -24.626970 125.451866 64.327362 0.000000 -89.965736 80.156380 143.117676
[L_forearm]
12 322.776093 0.000000 -0.000119 0.000357 -0.002320 -107.506004 322.776093
13 322.776093 0.000000 -0.000119 0.000357 -0.002320 -107.506004 322.776093
[L_front_hand]
12 241.149185 -0.042021 -3.300071 -177.752777 -0.319468 -73.408745 241.171753
13 241.149185 -0.042021 -3.300071 -177.752777 -0.319468 -73.408745 241.171753
[L_weapon_bone]
12 156.183838 0.000000 0.000000 0.000014 0.000007 0.000001 156.183838
13 156.183838 0.000000 0.000000 0.000014 0.000007 0.000001 156.183838
[L_front_hand01_01]
12 86.095154 20.947098 -0.655860 0.139491 -0.584553 24.181786 88.609184
13 86.095154 20.947098 -0.655860 0.139491 -0.584553 24.181787 88.609184
[L_front_hand02_01]
12 86.935165 -11.437475 24.513514 119.190460 -21.905655 -12.119137 91.046425
13 86.935165 -11.437475 24.513514 119.190460 -21.905655 -12.119137 91.046425
[L_front_hand03_01]
12 86.637497 -14.123976 -20.424902 -120.437630 20.554031 -14.327168 90.126129
13 86.637497 -14.123976 -20.424902 -120.437630 20.554033 -14.327170 90.126129
[L_front_hand01_02]
12 71.020905 -0.000179 0.000030 0.000334 -0.002323 -106.379684 71.020905
13 71.020905 -0.000179 0.000030 0.000334 -0.002323 -106.379684 71.020905
[L_front_hand02_02]
12 71.020927 -0.000119 0.000060 0.000334 -0.002323 -106.379684 71.020927
13 71.020927 -0.000119 0.000060 0.000334 -0.002323 -106.379684 71.020927
[L_front_hand03_02]
12 71.020905 -0.000060 0.000060 0.000334 -0.002323 -106.379684 71.020905
13 71.020905 -0.000060 0.000060 0.000334 -0.002323 -106.379684 71.020905
[R_forearm]
12 322.776428 -0.000060 0.000030 0.213176 0.008105 -93.737396 322.776428
13 322.776428 -0.000060 0.000030 0.213176 0.008105 -93.737396 322.776428
[R_front_hand]
12 238.847015 -0.006795 2.210259 -1.721140 -0.139412 -83.351707 238.857239
13 238.847015 -0.006795 2.210259 -1.721140 -0.139412 -83.351715 238.857239
[R_weapon_bone]
12 155.664093 0.002503 -0.000030 0.003487 0.001180 -90.988930 155.664078
13 155.664093 0.002503 -0.000030 0.003487 0.001180 -90.988930 155.664078
[R_front_hand01_01]
12 87.624611 14.231146 22.918642 -119.218071 -22.033403 12.303374 91.683487
13 87.624611 14.231146 22.918642 -119.218056 -22.033409 12.303375 91.683487
[R_front_hand02_01]
12 89.356956 14.367283 -19.491137 120.545532 20.947184 14.823009 92.579636
13 89.356956 14.367283 -19.491137 120.545532 20.947184 14.823009 92.579636
[R_front_hand03_01]
12 87.286232 -22.307278 -0.143439 -0.231628 -0.392922 -24.567768 90.091743
13 87.286232 -22.307278 -0.143439 -0.231628 -0.392922 -24.567768 90.091743
[R_front_hand01_02]
12 71.020905 0.000060 0.000119 0.002323 -0.000334 106.381714 71.020905
13 71.020905 0.000060 0.000119 0.002323 -0.000334 106.381714 71.020905
[R_front_hand02_02]
12 71.020844 -0.000030 -0.000119 0.002323 -0.000334 106.381714 71.020836
13 71.020844 -0.000030 -0.000119 0.002323 -0.000334 106.381714 71.020836
[R_front_hand03_02]
12 71.020905 0.000000 0.000030 0.002323 -0.000334 106.381714 71.020905
13 71.020905 0.000000 0.000030 0.002323 -0.000334 106.381714 71.020905
[null_rope01_connect]
12 328.732483 0.000000 -0.000238 -100.647240 -63.614048 -146.399368 328.732483
13 328.732483 0.000000 -0.000238 -99.881569 -63.080391 -150.345322 328.732483
[Rope1_Seg01]
12 0.000000 0.000000 0.000000 86.911270 -26.083754 -157.403625 0.000000
13 0.000000 0.000000 0.000000 85.974747 -28.062887 -157.030075 0.000000
[Rope1_Seg02]
12 139.999863 -0.000179 0.000000 -2.765190 5.170018 1.892434 139.999863
13 139.999863 -0.000179 0.000000 -2.399253 4.821702 1.653412 139.999863
[Rope1_Seg03]
12 139.999924 0.000060 -0.000060 -4.745989 7.922088 3.370006 139.999924
13 139.999924 0.000060 -0.000060 -3.844350 6.912932 2.719405 139.999924
[Rope1_Seg04]
12 139.999924 -0.000060 -0.000119 -8.792427 12.712759 7.642543 139.999924
13 139.999924 -0.000060 -0.000119 -6.411392 9.970294 5.142322 139.999924
[Rope1_Seg05]
12 139.999832 0.000119 -0.000060 -12.092203 17.387743 24.547567 139.999832
13 139.999832 0.000119 -0.000060 -8.456503 10.202444 12.904701 139.999832
[Rope1_Seg06]
12 139.999954 0.000119 -0.000060 -8.963716 19.901321 10.246637 139.999954
13 139.999954 0.000119 -0.000060 -12.539834 22.302525 13.240963 139.999954
[Rope1_Seg07]
12 139.999985 0.000060 0.000000 -6.297958 14.219102 -4.064440 139.999985
13 139.999985 0.000060 0.000000 -10.943386 17.165678 6.999737 139.999985
[Rope1_Seg09]
12 121.602913 0.000119 -0.000089 -89.793175 -1.359789 0.847147 121.602913
13 121.602913 0.000119 -0.000089 -89.793175 -1.359789 0.847147 121.602913
[L_mid_hand01]
12 103.859421 1.038730 8.195221 106.855484 -31.239275 -9.461397 104.187431
13 103.859421 1.038730 8.195221 106.855484 -31.239275 -9.461397 104.187431
[L_mid_hand02]
12 105.572853 -4.139662 -10.864139 -142.331345 25.752670 -28.774628 106.211075
13 105.572853 -4.139662 -10.864139 -142.331345 25.752670 -28.774628 106.211075
[L_mid_hand03]
12 104.641464 17.579376 -3.913581 -16.122810 9.734291 34.223598 106.179977
13 104.641464 17.579376 -3.913581 -16.122810 9.734291 34.223598 106.179977
[null_rope02_connect]
12 328.732849 0.000179 -0.000119 -134.987045 68.891151 -73.818954 328.732849
13 328.732849 0.000179 -0.000119 -139.036911 69.505585 -77.187065 328.732849
[Rope2_Seg01]
12 0.000146 0.000114 -0.000028 105.234070 -36.751553 -143.954147 0.000187
13 0.000145 0.000114 -0.000031 106.991524 -41.386192 -144.032486 0.000187
[Rope2_Seg02]
12 139.999741 -0.000060 -0.000119 -0.027521 10.202074 -3.442297 139.999756
13 139.999741 -0.000060 -0.000119 -0.463149 7.785450 -4.204708 139.999756
[Rope2_Seg03]
12 140.000107 0.000030 0.000000 -0.914477 17.324699 -6.073742 140.000107
13 140.000107 0.000030 0.000000 -0.875250 12.973295 -7.045988 140.000107
[Rope2_Seg04]
12 139.999802 0.000000 -0.000060 -4.115960 29.721180 -14.092558 139.999802
13 139.999802 0.000000 -0.000060 -1.509104 21.530125 -16.236290 139.999802
[Rope2_Seg05]
12 139.999985 -0.000060 0.000119 -5.061891 21.175842 -7.732686 139.999985
13 139.999985 -0.000060 0.000119 2.384551 22.175934 -16.153257 139.999985
[Rope2_Seg06]
12 139.999893 -0.000030 -0.000119 -10.160915 -0.024640 6.074167 139.999893
13 139.999893 -0.000030 -0.000119 -16.764536 10.148284 6.171203 139.999893
[Rope2_Seg07]
12 139.999893 0.000060 -0.000060 -5.449283 -6.051948 6.783682 139.999893
13 139.999893 0.000060 -0.000060 -15.983883 1.530850 10.540972 139.999893
[Rope2_Seg09]
12 121.338966 0.000089 -0.000060 33.793236 -1.359788 -0.847141 121.338966
13 121.338966 0.000089 -0.000060 33.793236 -1.359788 -0.847141 121.338966
[R_mid_hand01]
12 104.680779 11.144459 -10.335981 -41.523792 25.424656 28.595957 105.778534
13 104.680779 11.144459 -10.335981 -41.523792 25.424656 28.595957 105.778534
[R_mid_hand02]
12 104.070427 2.443552 8.231699 72.847389 -32.746803 10.013901 104.424065
13 104.070427 2.443552 8.231699 72.847389 -32.746803 10.013901 104.424065
[R_mid_hand03]
12 106.028137 -11.221827 -5.996406 -167.901306 10.259192 -37.009720 106.788818
13 106.028137 -11.221827 -5.996406 -167.901306 10.259192 -37.009720 106.788818
[spine02]
12 129.756927 0.001550 0.000119 0.001147 -1.797837 -7.854275 129.756927
13 129.756927 0.001550 0.000119 0.001147 -1.797837 -7.854274 129.756927
[spine03]
12 79.115631 0.000000 -0.000119 1.459971 -2.848092 23.765963 79.115631
13 79.115631 0.000000 -0.000119 1.459971 -2.848092 23.765961 79.115631
[pelvis]
12 169.435242 0.051022 0.000000 -0.000005 0.000003 -4.322055 169.435257
13 169.435242 0.051022 0.000000 -0.000005 0.000003 -4.322055 169.435257
[null_rope03_connect]
12 -1.257226 -2.466202 137.391083 62.726059 -85.218605 11.857695 137.418976
13 -1.257226 -2.466202 137.391083 63.868896 -85.285324 10.712707 137.418976
[null_rope04_connect]
12 -1.259640 -2.480268 -137.844437 62.726059 -85.218605 11.857695 137.872513
13 -1.259640 -2.480268 -137.844437 63.868896 -85.285324 10.712707 137.872513
[Rope3_Seg01]
12 0.000010 0.000031 -0.000125 -127.798820 -14.321044 -90.511032 0.000129
13 0.000010 0.000031 -0.000122 -122.716301 -17.266459 -103.056908 0.000126
[Rope3_Seg02]
12 139.999924 -0.000119 0.000060 -0.496877 -5.225632 0.509523 139.999924
13 139.999924 -0.000119 0.000060 -1.460719 -6.693411 -0.324143 139.999924
[Rope3_Seg03]
12 139.999924 -0.000119 0.000119 -0.351248 -6.315569 0.560944 139.999924
13 139.999924 -0.000119 0.000119 -1.254439 -8.594831 -0.643103 139.999924
[Rope3_Seg04]
12 139.999924 0.000119 0.000000 -0.019012 -9.405682 0.251352 139.999924
13 139.999924 0.000119 0.000000 -0.637198 -12.201710 -1.422448 139.999924
[Rope3_Seg05]
12 139.999924 -0.000238 0.000060 1.727165 -15.069054 -0.635915 139.999924
13 139.999924 -0.000238 0.000060 2.116173 -18.953779 -3.230489 139.999924
[Rope3_Seg06]
12 139.999893 -0.000119 -0.000060 0.761896 -0.776294 2.425120 139.999893
13 139.999893 -0.000119 -0.000060 1.523124 -5.343831 0.500005 139.999893
[Rope3_Seg07]
12 139.999771 0.000060 -0.000119 0.903238 16.719313 5.925662 139.999771
13 139.999771 0.000060 -0.000119 -0.245176 10.611380 4.137170 139.999771
[Rope3_Seg08]
12 139.999985 -0.000060 0.000000 2.098063 11.070977 4.440160 139.999985
13 139.999985 -0.000060 0.000000 0.655593 8.078478 3.499306 139.999985
[Rope3_Seg09]
12 90.185997 -0.000179 -0.000060 89.793228 -1.359877 -0.847183 90.185997
13 90.185997 -0.000179 -0.000060 89.793228 -1.359877 -0.847183 90.185997
[R_rear_hand01]
12 103.366196 -6.073594 -10.757982 -161.551193 16.666374 -30.088671 104.101845
13 103.366196 -6.073594 -10.757982 -161.551193 16.666374 -30.088671 104.101845
[R_rear_hand02]
12 100.509819 12.039542 -7.992327 -34.280552 19.289745 28.875523 101.543350
13 100.509819 12.039542 -7.992327 -34.280552 19.289745 28.875523 101.543350
[R_rear_hand03]
12 101.539970 5.215704 5.435467 83.366440 -30.933914 7.284830 101.819031
13 101.539970 5.215704 5.435467 83.366440 -30.933914 7.284830 101.819031
[Rope4_Seg01]
12 0.000010 0.000038 -0.000114 60.474747 -37.481300 -120.621330 0.000121
13 0.000010 0.000038 -0.000114 68.305687 -33.990833 -137.133957 0.000121
[Rope4_Seg02]
12 139.999985 0.000060 0.000119 -3.837084 22.250238 -3.133660 139.999985
13 139.999985 0.000060 0.000119 -4.043252 19.429609 0.704989 139.999985
[Rope4_Seg03]
12 139.999924 0.000000 -0.000238 0.574478 21.304626 -1.289320 139.999924
13 139.999924 0.000000 -0.000238 -0.649324 23.223827 2.680895 139.999924
[Rope4_Seg04]
12 139.999985 0.000000 0.000119 3.946863 20.123898 0.687219 139.999985
13 139.999985 0.000000 0.000119 3.216086 25.116125 5.453900 139.999985
[Rope4_Seg05]
12 139.999802 -0.000060 -0.000119 2.330178 4.787735 -1.500147 139.999802
13 139.999802 -0.000060 -0.000119 2.547169 10.147088 1.096967 139.999802
[Rope4_Seg06]
12 139.999924 0.000000 0.000060 0.623639 -4.460580 -3.002563 139.999924
13 139.999924 0.000000 0.000060 1.473467 0.127083 -2.059337 139.999924
[Rope4_Seg07]
12 139.999802 0.000000 0.000000 0.291414 -15.276763 -5.918183 139.999802
13 139.999802 0.000000 0.000000 1.165690 -8.813420 -5.690923 139.999802
[Rope4_Seg08]
12 139.999924 0.000000 0.000119 -1.062804 -9.707032 -4.778933 139.999924
13 139.999924 0.000000 0.000119 -0.580085 -8.164310 -5.616687 139.999924
[Rope4_Seg09]
12 90.185791 0.000060 0.000060 -135.617828 2.228885 0.850567 90.185791
13 90.185791 0.000060 0.000060 -135.617828 2.228885 0.850567 90.185791
[L_rear_hand01]
12 101.696655 -8.392275 -7.654577 -34.454281 -18.946800 151.655121 102.329041
13 101.696655 -8.392275 -7.654577 -34.454281 -18.946800 151.655121 102.329041
[L_rear_hand02]
12 102.726799 -1.568258 5.773216 83.407906 30.330435 172.796509 102.900848
13 102.726799 -1.568258 5.773216 83.407906 30.330435 172.796509 102.900848
[L_rear_hand03]
12 104.552910 9.721220 -10.420293 -161.379868 -16.473232 -150.512238 105.519653
13 104.552910 9.721220 -10.420293 -161.379868 -16.473232 -150.512238 105.519653
